<svg xmlns="http://www.w3.org/2000/svg" viewBox="0 0 64 64" width="64" height="64">
  <defs><linearGradient id="bg" x1="0" y1="0" x2="0" y2="1">
    <stop offset="0" stop-color="#12564E"/><stop offset="1" stop-color="#0C302B"/>
  </linearGradient></defs>
  <rect x="2" y="2" width="60" height="60" rx="14" fill="url(#bg)"/>
  <rect x="6" y="6" width="52" height="52" rx="11" fill="none" stroke="#C7A56D" stroke-width="2"/>
  <g transform="translate(9,9) scale(0.46)" fill="#E2CD9D"><g transform="translate(12.09,74.56) scale(0.0927,-0.0927)"><path d="M628 431Q689 431 737.5 386.0Q786 341 786 281Q786 227 743.0 186.0Q700 145 646 145Q600 145 554 195Q590 212 590 232Q590 246 569 246Q530 246 512 194Q530 194 543.0 181.5Q556 169 556 150Q556 145 554.5 139.0Q553 133 548.0 124.5Q543 116 531.5 111.0Q520 106 503 106Q507 62 523 62Q531 62 531 78Q531 85 529 95Q540 109 556 109Q584 109 605.5 86.0Q627 63 627 32Q627 -2 604.5 -23.5Q582 -45 547 -45Q503 -45 471 -13Q471 -31 440.5 -82.0Q410 -133 409 -145Q408 -133 377.5 -82.0Q347 -31 347 -13Q316 -45 271 -45Q238 -45 214.5 -23.0Q191 -1 191 32Q191 61 212.0 85.0Q233 109 262 109Q279 109 290 95Q287 85 287 78Q287 62 295 62Q312 62 315 106Q293 106 280.0 116.5Q267 127 264.5 135.5Q262 144 262 150Q262 168 275.5 181.0Q289 194 306 194Q289 246 249 246Q228 246 228 232Q228 212 265 195Q219 145 173 145Q118 145 75.0 186.0Q32 227 32 281Q32 343 80.0 387.0Q128 431 190 431Q262 431 315 377Q304 421 304 457Q304 491 327.0 530.5Q350 570 377.0 609.0Q404 648 409 675Q415 647 442.0 608.0Q469 569 491.5 530.0Q514 491 514 457Q514 421 503 377Q557 431 628 431ZM646 174Q689 174 723.0 206.5Q757 239 757 281Q757 329 717.5 365.0Q678 401 628 401Q552 401 500.0 327.5Q448 254 448 165H419Q419 188 452.0 305.0Q485 422 485 457Q485 465 483.5 473.0Q482 481 480.0 487.5Q478 494 473.5 503.5Q469 513 465.5 519.0Q462 525 454.0 537.0Q446 549 441.5 555.5Q437 562 426.0 578.0Q415 594 409 602Q404 595 390.5 575.5Q377 556 372.0 549.0Q367 542 357.5 526.5Q348 511 344.5 502.0Q341 493 337.5 480.5Q334 468 334 457Q334 426 366.5 308.5Q399 191 399 165H371Q371 252 319.0 326.5Q267 401 190 401Q139 401 100.5 366.0Q62 331 62 281Q62 238 96.0 206.0Q130 174 173 174Q197 174 220 193Q199 216 199 232Q199 251 214.5 263.0Q230 275 249 275Q288 275 315.5 241.0Q343 207 343 165H306Q292 165 292 150Q292 136 306 136H345Q345 82 334.0 57.5Q323 33 295 33Q279 33 268.5 49.0Q258 65 258 80Q221 75 221 32Q221 -16 271 -16Q317 -16 343.5 30.5Q370 77 371 136H400Q400 124 388.0 68.0Q376 12 376 -4Q376 -25 409 -77Q442 -25 442 -4Q442 10 430.0 67.0Q418 124 418 136H447Q447 78 474.0 31.0Q501 -16 547 -16Q598 -16 598 32Q598 75 561 80Q561 64 549.0 48.5Q537 33 523 33Q473 33 473 136H512Q527 136 527 150Q527 165 512 165H476Q476 206 504.0 240.5Q532 275 569 275Q587 275 603.5 261.5Q620 248 620.0 232.0Q620 216 598 193Q622 174 646 174Z"/></g></g>
</svg>